<?xml version="1.0" encoding="utf-8"?>
<!-- Generator: Adobe Illustrator 16.0.4, SVG Export Plug-In . SVG Version: 6.00 Build 0)  -->
<!DOCTYPE svg PUBLIC "-//W3C//DTD SVG 1.0//EN" "http://www.w3.org/TR/2001/REC-SVG-20010904/DTD/svg10.dtd">
<svg version="1.0" xmlns="http://www.w3.org/2000/svg" xmlns:xlink="http://www.w3.org/1999/xlink" x="0px" y="0px" width="450px"
	 height="450px" viewBox="0 0 450 450" enable-background="new 0 0 450 450" xml:space="preserve">
<g id="Layer_1">
	<g>
		<path fill="#CC0000" d="M414.194,300.347c-2.957,35.368-34.417,64.306-69.908,64.306h-242.01
			c-35.491,0-66.95-28.938-69.909-64.306L19.54,147.025c-2.958-35.369,23.658-64.306,59.15-64.306h289.181
			c35.492,0,62.108,28.938,59.152,64.306L414.194,300.347z"/>
		<g>
			<path fill="#FFDE17" d="M223.083,302.707c-69.279-4.972-37.247-29.357-68.13-32.555c-32.762-3.386-39.747-0.601-50.397,0
				c-10.656,0.599-6.56-3.475-6.56-3.475s22.158-10.451,44.253-27.863c14.397-11.334,28.464-22.939,34.417-45.071
				c13.922-51.668,26.78-67.932,46.616-66.283c19.836-1.649,32.682,14.621,46.609,66.283c5.963,22.131,20.023,33.737,34.426,45.071
				c22.086,17.412,44.246,27.863,44.246,27.863s4.1,4.074-6.56,3.475c-10.654-0.601-18.009-5.989-50.398,0
				c-33.248,6.145,1.151,27.583-68.134,32.555l-0.189,0.019L223.083,302.707z"/>
		</g>
		<path fill="#414042" d="M63.79,194.72c0,0-16.471-27.817-3.23-46.248c4.309-5.998,22.125-7.216,34.805-4.769
			c8.298,1.601,17.439,4.147,28.964,13.671c2.112,1.741,2.156,8.149,2.92,5.073c2.051-8.192-18.174-20.537-26.581-23.202
			c-26.172-8.296-44.819,5.94-45.254,7.84c-0.805,3.468-2.17,21.05-0.998,29.346C55.138,181.52,63.79,194.72,63.79,194.72z"/>
		<path fill="#414042" d="M280.421,257.467c-2.708,6.498-6.738,14.046-10.979,21.532c-2.703,8.332-8.359,22.829-17.022,31.972
			c-1.385,1.444-2.584,3.035-3.698,4.78c-2.405,5.234-4.333,10.228-5.923,14.98c-12.151,35.878-5.272,53.12-20.213,64.391
			c-15.501-11.271-8.09-28.39-20.12-64.091c-1.657-4.9-3.67-10.073-6.167-15.487c-0.031-0.03-0.059-0.091-0.059-0.119
			c-1.053-1.594-2.198-3.1-3.49-4.453c-8.691-9.171-14.373-23.789-17.111-32.091c-4.183-7.43-8.154-14.883-10.826-21.321
			c-5.025-7.159-9.055-14.315-2.77-18.077c14.559-8.752,31.371-47.519,41.956-67.039c2.978-5.502,5.446-9.475,7.248-10.827
			c3.548-2.674,7.188-3.998,10.616-4.45c0.241,0.029,0.48,0.06,0.723,0.121c0.239-0.061,0.452-0.092,0.691-0.121
			c3.461,0.452,7.095,1.775,10.648,4.45c1.775,1.352,4.27,5.325,7.249,10.827c10.554,19.52,27.397,58.287,41.953,67.039
			C289.382,243.243,285.415,250.308,280.421,257.467z"/>
		<path fill="#FFDE17" d="M143.301,174.389c0,0-5.264,6.924-5.742,9.084c-0.479,2.164-27.154,57.051-77.398,15.681
			c0,0-16.303-20.076-9.541-45.812c0.558-2.125-0.684-7.068,0.928-8.697c22.967-23.2,77.338-9.085,87.206,14.439
			C140.309,162.788,143.301,174.389,143.301,174.389z"/>
		<path fill="#414042" d="M62.852,195.748c0,0-19.233-29.363-3.768-48.831c5.026-6.323,25.834-7.611,40.642-5.028
			c9.691,1.693,20.367,4.38,33.826,14.439c2.462,1.843,2.511,8.601,3.409,5.354c2.393-8.653-21.224-21.682-31.042-24.496
			c-30.565-8.761-52.337,6.271-52.85,8.272c-0.938,3.662-2.531,22.23-1.16,30.987C52.75,181.812,62.852,195.748,62.852,195.748z"/>
		<ellipse fill="#414042" cx="102.149" cy="168.873" rx="22.011" ry="22.604"/>
		<path opacity="0.8" fill="#F1F2F2" d="M56.75,167.683c2.334-50.074,64.371-7.071,62.624-6.001
			c-10.168,6.217-27.095,5.515-32.657,2.27c-5.563-3.244-12.92-5.35-18.482-2.756C62.673,163.79,56.579,171.39,56.75,167.683z"/>
		<path fill="#FFDE17" d="M301.868,174.389c0,0,5.262,6.924,5.743,9.084c0.479,2.164,27.154,57.051,77.398,15.681
			c0,0,16.302-20.076,9.539-45.812c-0.556-2.125,0.685-7.068-0.927-8.697c-22.966-23.2-77.338-9.085-87.207,14.439
			C304.861,162.788,301.868,174.389,301.868,174.389z"/>
		<path fill="#414042" d="M382.316,195.748c0,0,19.233-29.363,3.77-48.831c-5.027-6.323-25.836-7.611-40.645-5.028
			c-9.689,1.693-20.367,4.38-33.823,14.439c-2.464,1.843-2.513,8.601-3.41,5.354c-2.393-8.653,21.224-21.682,31.042-24.496
			c30.565-8.761,52.338,6.271,52.851,8.272c0.938,3.662,2.532,22.23,1.161,30.987C392.42,181.812,382.316,195.748,382.316,195.748z"
			/>
		<path fill="#414042" d="M321.006,168.873c0,12.482,9.857,22.604,22.011,22.604c12.159,0,22.015-10.122,22.015-22.604
			c0-12.483-9.856-22.605-22.015-22.605C330.864,146.268,321.006,156.39,321.006,168.873z"/>
		<path opacity="0.9" fill="#F1F2F2" d="M388.419,167.683c-2.334-50.074-64.372-7.071-62.624-6.001
			c10.167,6.217,27.094,5.515,32.655,2.27c5.564-3.244,12.92-5.35,18.483-2.756C382.496,163.79,388.59,171.39,388.419,167.683z"/>
		<path opacity="0.8" fill="#F1F2F2" d="M91.27,198.223c-3.301,5.344-16.272,0-21.306-6.815c-3.73-5.053-4.89-7.196-1.592-12.54
			c3.302-5.341,6.697-6.715,12.037-3.415C85.754,178.757,94.571,192.875,91.27,198.223z"/>
		<circle opacity="0.5" fill="#00FDFF" cx="348.565" cy="166.525" r="81.139"/>
		<path opacity="0.5" fill="#FFFFFF" d="M427.742,153.487c5.656,42.386-24.125,81.326-66.505,86.981
			c-42.391,5.655-81.333-24.117-86.985-66.505c-5.655-42.382,24.119-81.33,66.508-86.988
			C383.143,81.323,422.088,111.104,427.742,153.487z"/>
		<path fill="#414042" d="M442.563,214.657c-0.716-5.373-4.493-9.603-9.341-11.169c6.562-14.962,9.243-31.839,6.93-49.18
			c-6.738-50.502-53.302-86.103-103.801-79.367c-50.498,6.736-86.107,53.299-79.37,103.802
			c6.738,50.495,53.308,86.107,103.805,79.369c23.73-3.166,44.169-15.129,58.474-32.16c2.908,2.991,7.145,4.62,11.585,4.028
			C438.3,228.985,443.56,222.115,442.563,214.657z M359.297,246.953c-44.346,5.917-85.244-25.347-91.159-69.697
			c-5.917-44.347,25.353-85.248,69.701-91.163c44.344-5.916,85.237,25.357,91.152,69.703c2.55,19.115-1.808,37.587-11.142,52.895
			c-0.265,0.381-0.511,0.777-0.737,1.184C404.699,229.471,384.033,243.655,359.297,246.953z M430.018,223.778
			c-2.713,0.362-5.28-0.804-6.835-2.834c2.711-3.716,5.147-7.634,7.284-11.72c3.019,0.594,5.466,3.047,5.896,6.263
			C436.902,219.526,434.058,223.239,430.018,223.778z"/>
		<path opacity="0.8" fill="#FFFFFF" d="M359.429,91.744c-9.089,5.111,22.834,12.802,39.431,36.09
			c16.596,23.29,16.487,47.405,19.762,45.01c4.792-3.503,8.52-29.449-8.077-52.738C393.95,96.815,364.412,88.943,359.429,91.744z"/>
	</g>
</g>
<g id="Guides" display="none">
</g>
</svg>
